<?xml version="1.0" encoding="UTF-8"?> <svg xmlns="http://www.w3.org/2000/svg" xmlns:xlink="http://www.w3.org/1999/xlink" xmlns:xodm="http://www.corel.com/coreldraw/odm/2003" xml:space="preserve" width="90.17mm" height="90.17mm" version="1.1" style="shape-rendering:geometricPrecision; text-rendering:geometricPrecision; image-rendering:optimizeQuality; fill-rule:evenodd; clip-rule:evenodd" viewBox="0 0 361.31 361.31"> <defs> <style type="text/css"> .fil0 {fill:black} .fil1 {fill:#FEFEFE;fill-rule:nonzero} .fil2 {fill:#FF0009;fill-rule:nonzero} </style> </defs> <g id="Capa_x0020_1"> <metadata id="CorelCorpID_0Corel-Layer"></metadata> <g id="_2398792784000"> <circle class="fil0" cx="180.66" cy="180.66" r="180.66"></circle> <path class="fil1" d="M113.24 244.51m0 0l0 -33.14 24.53 0 0 5.6 -17.82 0 0 7.36 16.57 0 0 5.6 -16.57 0 0 8.98 18.47 0 0 5.6 -25.18 0zm30.36 0m0 -24.02l5.83 0 0 3.29c2.08,-2.55 4.58,-3.8 7.5,-3.8 1.53,0 2.87,0.32 3.98,0.93 1.11,0.65 2.04,1.62 2.78,2.87 1.06,-1.25 2.18,-2.22 3.42,-2.87 1.2,-0.6 2.5,-0.93 3.89,-0.93 1.76,0 3.24,0.37 4.49,1.06 1.2,0.74 2.13,1.76 2.73,3.15 0.42,1.02 0.65,2.68 0.65,5l0 15.32 -6.34 0 0 -13.7c0,-2.41 -0.23,-3.93 -0.65,-4.63 -0.6,-0.88 -1.48,-1.34 -2.73,-1.34 -0.88,0 -1.71,0.28 -2.5,0.79 -0.79,0.56 -1.34,1.34 -1.71,2.41 -0.32,1.06 -0.51,2.68 -0.51,4.95l0 11.52 -6.34 0 0 -13.14c0,-2.31 -0.09,-3.84 -0.32,-4.54 -0.23,-0.65 -0.6,-1.16 -1.06,-1.48 -0.46,-0.37 -1.11,-0.51 -1.94,-0.51 -0.97,0 -1.85,0.28 -2.64,0.79 -0.79,0.51 -1.34,1.3 -1.67,2.27 -0.32,1.02 -0.51,2.64 -0.51,4.95l0 11.66 -6.34 0 0 -24.02zm41.42 24.02m0 -24.02l5.92 0 0 3.52c0.79,-1.2 1.81,-2.18 3.1,-2.92 1.34,-0.74 2.78,-1.11 4.4,-1.11 2.78,0 5.14,1.11 7.08,3.29 1.94,2.18 2.92,5.23 2.92,9.12 0,4.03 -0.97,7.17 -2.92,9.4 -1.99,2.22 -4.35,3.33 -7.13,3.33 -1.34,0 -2.55,-0.28 -3.61,-0.79 -1.11,-0.56 -2.22,-1.43 -3.43,-2.73l0 12.03 -6.34 0 0 -33.14zm6.25 11.62c0,2.73 0.56,4.72 1.62,6.02 1.06,1.3 2.36,1.94 3.89,1.94 1.48,0 2.68,-0.6 3.66,-1.81 1.02,-1.16 1.48,-3.1 1.48,-5.83 0,-2.5 -0.51,-4.4 -1.53,-5.6 -0.97,-1.25 -2.22,-1.85 -3.7,-1.85 -1.57,0 -2.87,0.6 -3.89,1.8 -1.02,1.2 -1.53,2.96 -1.53,5.32zm21.94 12.4m6.34 0l-6.34 0 0 -24.02 5.88 0 0 3.43c1.02,-1.62 1.94,-2.68 2.73,-3.19 0.83,-0.51 1.71,-0.74 2.78,-0.74 1.43,0 2.82,0.42 4.17,1.2l-1.94 5.51c-1.11,-0.69 -2.08,-1.02 -3.01,-1.02 -0.88,0 -1.67,0.23 -2.27,0.74 -0.6,0.46 -1.11,1.34 -1.43,2.64 -0.37,1.3 -0.56,3.98 -0.56,8.05l0 7.41zm10.09 0m15.74 -7.59l6.34 1.06c-0.79,2.31 -2.08,4.07 -3.84,5.32 -1.76,1.2 -3.98,1.81 -6.57,1.81 -4.21,0 -7.27,-1.39 -9.3,-4.12 -1.57,-2.18 -2.36,-4.95 -2.36,-8.28 0,-3.98 1.06,-7.08 3.1,-9.35 2.08,-2.27 4.72,-3.38 7.91,-3.38 3.56,0 6.39,1.16 8.42,3.52 2.08,2.36 3.05,6.02 2.96,10.88l-15.88 0c0.05,1.9 0.56,3.33 1.53,4.4 0.97,1.06 2.22,1.57 3.66,1.57 0.97,0 1.81,-0.28 2.5,-0.83 0.69,-0.51 1.2,-1.39 1.53,-2.59zm0.37 -6.43c-0.05,-1.85 -0.51,-3.24 -1.43,-4.21 -0.88,-0.97 -1.99,-1.43 -3.29,-1.43 -1.39,0 -2.5,0.51 -3.43,1.53 -0.88,1.02 -1.34,2.36 -1.3,4.12l9.44 0zm9.21 14.02m0 -6.76l6.39 -0.97c0.28,1.2 0.83,2.18 1.67,2.78 0.83,0.65 1.99,0.97 3.47,0.97 1.62,0 2.87,-0.32 3.7,-0.93 0.56,-0.42 0.83,-0.97 0.83,-1.67 0,-0.51 -0.14,-0.88 -0.46,-1.2 -0.32,-0.32 -1.02,-0.6 -2.13,-0.83 -5.09,-1.16 -8.38,-2.18 -9.72,-3.1 -1.9,-1.34 -2.87,-3.15 -2.87,-5.42 0,-2.13 0.83,-3.84 2.45,-5.28 1.67,-1.43 4.21,-2.13 7.64,-2.13 3.29,0 5.74,0.56 7.36,1.62 1.57,1.06 2.68,2.64 3.29,4.77l-5.97 1.11c-0.23,-0.93 -0.74,-1.67 -1.48,-2.18 -0.69,-0.51 -1.71,-0.74 -3.05,-0.74 -1.67,0 -2.87,0.23 -3.61,0.69 -0.51,0.32 -0.74,0.79 -0.74,1.3 0,0.46 0.23,0.83 0.65,1.16 0.56,0.42 2.55,1.02 5.92,1.8 3.42,0.74 5.79,1.71 7.13,2.82 1.34,1.11 1.99,2.68 1.99,4.72 0,2.18 -0.93,4.07 -2.78,5.69 -1.8,1.57 -4.54,2.36 -8.15,2.36 -3.29,0 -5.88,-0.65 -7.78,-1.99 -1.9,-1.3 -3.15,-3.1 -3.75,-5.37zm26.34 6.76m6.39 -16.62l-5.74 -1.02c0.65,-2.36 1.76,-4.07 3.33,-5.23 1.62,-1.11 3.93,-1.67 7.08,-1.67 2.82,0 4.95,0.32 6.34,1.02 1.34,0.65 2.36,1.48 2.92,2.55 0.56,1.02 0.83,2.92 0.83,5.69l-0.09 7.41c0,2.08 0.09,3.66 0.32,4.63 0.19,1.02 0.56,2.08 1.11,3.24l-6.29 0c-0.14,-0.42 -0.37,-1.02 -0.6,-1.85 -0.09,-0.37 -0.18,-0.65 -0.23,-0.74 -1.06,1.06 -2.22,1.85 -3.47,2.41 -1.25,0.51 -2.55,0.79 -3.93,0.79 -2.45,0 -4.4,-0.69 -5.83,-2.04 -1.43,-1.3 -2.13,-3.01 -2.13,-5.04 0,-1.39 0.32,-2.59 0.97,-3.66 0.65,-1.06 1.57,-1.85 2.73,-2.41 1.16,-0.6 2.82,-1.06 5.04,-1.48 2.96,-0.56 5,-1.11 6.16,-1.57l0 -0.65c0,-1.25 -0.28,-2.13 -0.88,-2.64 -0.65,-0.51 -1.76,-0.79 -3.42,-0.79 -1.16,0 -2.04,0.23 -2.68,0.69 -0.6,0.42 -1.11,1.2 -1.53,2.36zm8.52 5.14c-0.79,0.28 -2.08,0.6 -3.84,0.97 -1.76,0.37 -2.92,0.74 -3.47,1.11 -0.83,0.6 -1.25,1.34 -1.25,2.22 0,0.88 0.32,1.67 1.02,2.31 0.65,0.65 1.48,0.97 2.5,0.97 1.16,0 2.27,-0.37 3.29,-1.11 0.79,-0.6 1.3,-1.3 1.53,-2.13 0.14,-0.56 0.23,-1.57 0.23,-3.1l0 -1.25zm10.23 11.48m0 -6.76l6.39 -0.97c0.28,1.2 0.83,2.18 1.67,2.78 0.83,0.65 1.99,0.97 3.47,0.97 1.62,0 2.87,-0.32 3.7,-0.93 0.56,-0.42 0.83,-0.97 0.83,-1.67 0,-0.51 -0.14,-0.88 -0.46,-1.2 -0.32,-0.32 -1.02,-0.6 -2.13,-0.83 -5.09,-1.16 -8.38,-2.18 -9.72,-3.1 -1.9,-1.34 -2.87,-3.15 -2.87,-5.42 0,-2.13 0.83,-3.84 2.45,-5.28 1.67,-1.43 4.21,-2.13 7.64,-2.13 3.29,0 5.74,0.56 7.36,1.62 1.57,1.06 2.68,2.64 3.29,4.77l-5.97 1.11c-0.23,-0.93 -0.74,-1.67 -1.48,-2.18 -0.69,-0.51 -1.71,-0.74 -3.05,-0.74 -1.67,0 -2.87,0.23 -3.61,0.69 -0.51,0.32 -0.74,0.79 -0.74,1.3 0,0.46 0.23,0.83 0.65,1.16 0.55,0.42 2.55,1.02 5.92,1.8 3.42,0.74 5.79,1.71 7.13,2.82 1.34,1.11 1.99,2.68 1.99,4.72 0,2.18 -0.93,4.07 -2.78,5.69 -1.8,1.57 -4.54,2.36 -8.15,2.36 -3.29,0 -5.88,-0.65 -7.78,-1.99 -1.9,-1.3 -3.15,-3.1 -3.75,-5.37z"></path> <path class="fil2" d="M63.23 184.29c-10.38,0 -18.79,-8.41 -18.79,-18.79 0,-10.38 8.41,-18.79 18.79,-18.79 7.61,0 14.15,4.53 17.1,11.04l12.68 0c-3.44,-13.25 -15.45,-23.05 -29.78,-23.05 -17.01,0 -30.8,13.79 -30.8,30.8 0,17.01 13.79,30.8 30.8,30.8 14.19,0 26.11,-9.61 29.68,-22.67l-12.76 0c-3.03,6.3 -9.46,10.66 -16.92,10.66z"></path> <path class="fil2" d="M217.99 184.05c-7.21,0 -13.06,-5.85 -13.06,-13.06 0,-7.21 5.85,-13.06 13.06,-13.06 7.21,0 13.06,5.85 13.06,13.06 0,7.21 -5.85,13.06 -13.06,13.06zm0 -37.25c-13.36,0 -24.19,10.83 -24.19,24.19 0,13.36 10.83,24.19 24.19,24.19 13.36,0 24.19,-10.83 24.19,-24.19 0,-13.36 -10.83,-24.19 -24.19,-24.19z"></path> <path class="fil2" d="M134.97 187.74c-8.82,0.63 -8.19,-11.53 -1.26,-12.41 6.93,-0.88 11.21,-3.34 11.21,-3.34 0,0 0.13,0.63 0.13,4.28 0,3.65 -1.26,10.83 -10.08,11.46zm10.46 3.53l0 4.66 11.9 0 -0.44 -37.79c0,0 0.63,-10.96 -19.27,-10.96 -19.9,0 -20.6,15.68 -20.03,16.25l12.22 0c0,0 0.13,-8.69 10.71,-6.3 0,0 4.91,0 4.66,4.79 -0.25,4.79 -7.81,4.79 -12.35,4.79 -4.54,0 -22.05,4.41 -14.11,23.81 0,0 4.03,6.93 16.12,5.04 0,0 5.67,-0.25 10.2,-4.16 4.53,-3.91 0.38,-0.13 0.38,-0.13z"></path> <path class="fil2" d="M192.03 160.31c-1.29,-0.99 -15.1,-2.36 -15.1,11.69l0 23.43 -11.9 0 0 -45.96 11.9 0 0 4.99c0,0 3.83,-6.61 15.1,-6.99l0 12.85z"></path> <polygon class="fil2" points="110.03,195.42 98.19,195.42 98.19,134.95 110.03,134.95 "></polygon> <polygon class="fil2" points="227.82,137.54 216.29,137.54 216.29,107.68 227.82,107.68 "></polygon> <polygon class="fil2" points="252,158.32 281.86,158.32 281.86,169.85 252,169.85 "></polygon> <polygon class="fil2" points="245.67,149.27 237.9,141.5 266.57,112.83 274.34,120.6 "></polygon> </g> </g> </svg> 